<svg width="24" height="24" xmlns="http://www.w3.org/2000/svg" fill-rule="evenodd" clip-rule="evenodd"><path d="M12.434 24h-.894a.931.931 0 01-.616-.218L9.737 23h4.5l-1.188.782a.926.926 0 01-.615.218zm1.845-2H9.721a.5.5 0 110-1h4.558a.5.5 0 010 1zm-3.054-2H9.214C9.198 16.007 6 14.363 6 10.746 6 7.209 8.837 4.973 12.068 5c3.287.053 5.934 2.344 5.934 5.747 0 3.626-3.189 5.178-3.215 9.253h-2.015c.152-4.705 3.229-6.902 3.229-9.255C16.001 8.409 14.172 7 12.009 7 10.036 7 8 8.232 8 10.754c0 2.347 3.189 5.003 3.225 9.246zm8.514-7.229l2.699 1.224-.827 1.822-2.596-1.177c.301-.6.55-1.215.724-1.869zm-15.477 0c.173.664.415 1.261.719 1.87l-2.592 1.176-.827-1.822 2.7-1.224zM12.01 11h2.235l-1.133 4.51h-1.745l.638-2.51H9.741l1.199-4.536h1.76L12.01 11zM23 11h-3.003a8.1 8.1 0 00-.185-2H23v2zM4.003 11H1V9h3.187a8.254 8.254 0 00-.184 1.995V11zm14.04-5.428l2.485-1.763 1.158 1.631-2.505 1.777a7.281 7.281 0 00-1.138-1.645zM5.956 5.571a7.318 7.318 0 00-1.138 1.645L2.315 5.44l1.157-1.631 2.484 1.762zm8.869-2.092l1.327-2.69 1.793.885-1.327 2.69a8.151 8.151 0 00-1.793-.885zm-5.651-.002a8.11 8.11 0 00-1.794.884L6.054 1.674 7.848.789l1.326 2.688zM13 3.061a8.52 8.52 0 00-2-.003V0h2v3.061z"/></svg>